<svg width="70" height="70" viewBox="0 0 70 70" fill="none" xmlns="http://www.w3.org/2000/svg">
<path d="M46.0736 67.4142V8.34504C46.0736 6.91687 44.9159 5.75928 43.4877 5.75928H7.37482C5.94666 5.75928 4.78906 6.91701 4.78906 8.34504V67.4142C4.78906 68.8424 5.9468 70 7.37482 70H43.4879C44.9159 70 46.0736 68.8423 46.0736 67.4142Z" fill="#FB2E86"/>
<path d="M51.9667 5.75909H43.3125C44.7407 5.75909 45.8984 6.91683 45.8984 8.34486V67.4141C45.8984 68.8422 44.7407 69.9998 43.3125 69.9998H51.9667C53.3948 69.9998 54.5526 68.8421 54.5526 67.4141V8.34499C54.5526 6.91683 53.3948 5.75909 51.9667 5.75909Z" fill="#FB2E86"/>
<path d="M9.01562 64.8493V10.9099C9.01562 10.3994 9.42947 9.98566 9.93984 9.98566H49.4012C49.9118 9.98566 50.3255 10.3995 50.3255 10.9099V64.8493C50.3255 65.3598 49.9116 65.7735 49.4012 65.7735H9.93984C9.42934 65.7735 9.01562 65.3598 9.01562 64.8493Z" fill="#F5F5F5"/>
<path d="M49.4003 9.98566H40.7461C41.2566 9.98566 41.6703 10.3995 41.6703 10.9099V64.8493C41.6703 65.3598 41.2565 65.7735 40.7461 65.7735H49.4003C49.9108 65.7735 50.3245 65.3596 50.3245 64.8493V10.9099C50.3245 10.3995 49.9108 9.98566 49.4003 9.98566Z" fill="#EAEAEA"/>
<path d="M35.1626 3.21809V1.85678C35.1626 0.831387 34.3313 0 33.3058 0H26.0328C25.0072 0 24.176 0.831387 24.176 1.85678V3.21809C24.176 3.6374 23.836 3.97742 23.4166 3.97742H20.3897C19.3828 3.97742 18.5664 4.79377 18.5664 5.8007V9.98566H40.7721V5.8007C40.7721 4.79377 39.9558 3.97742 38.9488 3.97742H35.9219C35.5026 3.97742 35.1626 3.6374 35.1626 3.21809Z" fill="#C2D0DA"/>
<path d="M14.3906 24.9911V16.8511C14.3906 15.9493 15.1218 15.2181 16.0236 15.2181H24.1636C25.0654 15.2181 25.7965 15.9493 25.7965 16.8511V24.9911C25.7965 25.8929 25.0654 26.624 24.1636 26.624H16.0236C15.1217 26.624 14.3906 25.8929 14.3906 24.9911Z" fill="#FB2E86"/>
<path d="M14.3906 41.9497V33.8097C14.3906 32.9079 15.1218 32.1768 16.0236 32.1768H24.1636C25.0654 32.1768 25.7965 32.9079 25.7965 33.8097V41.9497C25.7965 42.8515 25.0654 43.5827 24.1636 43.5827H16.0236C15.1217 43.5827 14.3906 42.8515 14.3906 41.9497Z" fill="#FB2E86"/>
<path d="M14.3906 58.9081V50.7682C14.3906 49.8664 15.1218 49.1352 16.0236 49.1352H24.1636C25.0654 49.1352 25.7965 49.8664 25.7965 50.7682V58.9081C25.7965 59.8099 25.0654 60.5411 24.1636 60.5411H16.0236C15.1217 60.5411 14.3906 59.8101 14.3906 58.9081Z" fill="#FB2E86"/>
<path d="M19.4041 23.8361C19.4029 23.8361 19.4018 23.8361 19.4005 23.8361C18.9342 23.835 18.4919 23.6091 18.2172 23.2322L16.9837 21.5383C16.6403 21.0666 16.7442 20.4058 17.2159 20.0624C17.6876 19.7191 18.3483 19.823 18.6916 20.2945L19.4068 21.2769L21.4979 18.4358C21.8438 17.9659 22.505 17.8656 22.9748 18.2114C23.4447 18.5571 23.5452 19.2184 23.1993 19.6883L20.5863 23.2382C20.3108 23.6127 19.8689 23.8361 19.4041 23.8361Z" fill="#F6F9F9"/>
<path d="M19.4039 41.1636C19.4026 41.1636 19.4013 41.1636 19.4001 41.1636C18.9338 41.1624 18.4915 40.9367 18.217 40.5595L16.9837 38.8658C16.6403 38.3941 16.7442 37.7334 17.2159 37.3899C17.6876 37.0466 18.3483 37.1505 18.6916 37.6221L19.4068 38.6044L21.4979 35.7634C21.8438 35.2936 22.505 35.1931 22.9748 35.5389C23.4447 35.8847 23.5452 36.546 23.1993 37.0159L20.5863 40.5658C20.3108 40.9405 19.8689 41.1636 19.4039 41.1636Z" fill="#F6F9F9"/>
<path d="M19.4039 57.7534C19.4027 57.7534 19.4014 57.7534 19.4003 57.7533C18.9341 57.7522 18.4917 57.5265 18.2172 57.1497L16.9837 55.4555C16.6403 54.9838 16.7443 54.3232 17.216 53.9797C17.6879 53.6363 18.3484 53.7405 18.6917 54.212L19.4068 55.1942L21.498 52.3532C21.8439 51.8834 22.5051 51.7829 22.9749 52.1287C23.4448 52.4744 23.5452 53.1357 23.1993 53.6057L20.5864 57.1556C20.3106 57.53 19.8689 57.7534 19.4039 57.7534Z" fill="#F6F9F9"/>
<path d="M44.115 19.7702H31.0563C30.4729 19.7702 30 19.2973 30 18.7139C30 18.1306 30.4729 17.6577 31.0563 17.6577H44.115C44.6984 17.6577 45.1713 18.1306 45.1713 18.7139C45.1713 19.2973 44.6984 19.7702 44.115 19.7702Z" fill="#DDEAFB"/>
<path d="M37.5856 24.1845H31.0563C30.4729 24.1845 30 23.7116 30 23.1282C30 22.5448 30.4729 22.0719 31.0563 22.0719H37.5856C38.1689 22.0719 38.6419 22.5448 38.6419 23.1282C38.6419 23.7116 38.1689 24.1845 37.5856 24.1845Z" fill="#DDEAFB"/>
<path d="M39.8181 36.7288H31.0563C30.4729 36.7288 30 36.2559 30 35.6725C30 35.0891 30.4729 34.6162 31.0563 34.6162H39.8181C40.4014 34.6162 40.8743 35.0891 40.8743 35.6725C40.8743 36.2559 40.4014 36.7288 39.8181 36.7288Z" fill="#DDEAFB"/>
<path d="M37.5856 41.143H31.0563C30.4729 41.143 30 40.6701 30 40.0867C30 39.5034 30.4729 39.0305 31.0563 39.0305H37.5856C38.1689 39.0305 38.6419 39.5034 38.6419 40.0867C38.6419 40.6701 38.1689 41.143 37.5856 41.143Z" fill="#DDEAFB"/>
<path d="M61.0996 27.5786L60.0625 26.2123L56.1817 23.7547L54.69 23.5197L34.8186 54.9203C34.3391 55.6775 33.9873 56.5083 33.7773 57.3795C36.1951 57.4094 38.3896 58.799 39.4504 60.9719C40.1482 60.4096 40.7488 59.7364 41.2282 58.9792L61.0996 27.5786Z" fill="#FC8086"/>
<path d="M63.9042 17.9091L62.2273 16.8472C60.9202 16.0193 59.1893 16.4083 58.3619 17.7158L56.8242 20.1457L57.3148 21.1345L61.981 24.0894L63.234 24.2046L64.7726 21.7732C65.5995 20.4664 65.2108 18.7365 63.9042 17.9091Z" fill="#8C9BA6"/>
<path d="M54.6914 23.5107L56.8276 20.1368L63.2384 24.1957L61.1022 27.5697L54.6914 23.5107Z" fill="#C9E2E7"/>
<path d="M39.4508 60.9721L33.7927 65.5316C32.9945 66.1749 31.8349 65.4406 32.0751 64.444L33.7778 57.3796C36.1955 57.4094 38.3901 58.7992 39.4508 60.9721Z" fill="#7C8B96"/>
<path d="M37.9645 59.0145L58.7949 26.1202L57.01 24.99L36.1797 57.8843C36.8332 58.1596 37.4361 58.5415 37.9645 59.0145Z" fill="#FB636F"/>
</svg>
