<svg width="94" height="94" viewBox="0 0 94 94" fill="none" xmlns="http://www.w3.org/2000/svg">
<g clip-path="url(#clip0_108_8906)">
<path d="M94 47C94 46.429 93.9897 45.8602 93.9697 45.2942C93.0717 20.127 72.3864 0 47 0C21.6136 0 0.92825 20.127 0.0304766 45.2942C0.0102812 45.8602 0 46.429 0 47C0 72.9574 24.1429 92.2944 47 92.2944C70.2712 92.2944 94 72.9574 94 47Z" fill="#395093"/>
<path d="M47 90.5886C21.6139 90.5886 0.932289 70.461 0.0341484 45.2942C0.0137695 45.8608 0 46.4286 0 47C0 72.9574 21.0426 94 47 94C72.9574 94 94 72.9574 94 47C94 46.4286 93.9862 45.8608 93.966 45.2944C93.0677 70.4612 72.3861 90.5886 47 90.5886Z" fill="#3D559D"/>
<path d="M86.1823 45.2943C85.2893 24.4257 68.0884 7.78113 46.9999 7.78113C25.9114 7.78113 8.71053 24.4257 7.81753 45.2943C7.79329 45.8599 7.81734 83.7243 46.9999 83.7243C86.1825 83.7243 86.2065 45.8599 86.1823 45.2943Z" fill="white"/>
<path d="M47.0002 82.8075C25.9119 82.8075 8.71372 66.1626 7.82036 45.2942C7.79612 45.86 7.78125 46.4281 7.78125 46.9998C7.78125 68.6598 25.3402 86.2187 47.0002 86.2187C68.6602 86.2187 86.2191 68.66 86.2191 47C86.2191 46.4282 86.2041 45.86 86.18 45.2944C85.2866 66.1627 68.0885 82.8075 47.0002 82.8075Z" fill="#D5E0F2"/>
<path d="M61.2455 33.2396C60.1276 32.1372 58.3277 32.1495 57.2254 33.2672L50.5547 40.0302L51.225 43.2499L54.3409 44.2879L61.2733 37.2598C62.3755 36.1421 62.3632 34.3421 61.2455 33.2396Z" fill="#405B6C"/>
<path d="M42.9757 40.2892L27.8472 26.8075C26.675 25.7629 24.8782 25.8664 23.8337 27.0387C22.7892 28.2107 22.8926 30.0078 24.0648 31.0522L39.4913 44.7994L42.7059 43.7272L42.9757 40.2892Z" fill="#405B6C"/>
<path d="M67.1294 65.3295C66.8067 65.3295 66.4825 65.2203 66.2159 64.9965L48.2103 49.8724C47.6094 49.3675 47.5312 48.4708 48.0361 47.8699C48.541 47.2687 49.4374 47.1906 50.0387 47.6957L68.0443 62.82C68.6452 63.3248 68.7234 64.2215 68.2185 64.8224C67.9374 65.1571 67.5348 65.3295 67.1294 65.3295Z" fill="#86DCFF"/>
<path d="M39.4922 44.7992L42.147 47.165L45.5563 46.0065L45.3714 42.423L42.9768 40.2891C41.3107 41.2902 40.0496 42.8943 39.4922 44.7992Z" fill="#2D4456"/>
<path d="M50.554 40.0304L48.2969 42.3187V46.8105H51.8523L54.3404 44.2881C53.6567 42.4382 52.2932 40.9194 50.554 40.0304Z" fill="#2D4456"/>
<path d="M51.5486 45.2941C50.8579 43.4526 49.0813 42.142 46.9986 42.142C44.9159 42.142 43.1393 43.4526 42.4486 45.2941C42.2496 45.8249 42.4354 50.1524 46.9986 50.1524C51.5618 50.1524 51.7476 45.8249 51.5486 45.2941Z" fill="#395093"/>
<path d="M46.9987 48.4467C44.916 48.4467 43.1401 47.1359 42.4494 45.2944C42.2502 45.8252 42.1406 46.3997 42.1406 47C42.1406 49.6831 44.3157 51.8579 46.9985 51.8579C49.6816 51.8579 51.8564 49.6829 51.8564 47C51.8564 46.3997 51.7468 45.8252 51.5478 45.2944C50.8573 47.1357 49.0814 48.4467 46.9987 48.4467Z" fill="#3D559D"/>
<path d="M48.4225 17.1795V12.7683C48.4225 11.9817 47.7849 11.3441 46.9984 11.3441C46.2118 11.3441 45.5742 11.9817 45.5742 12.7683V17.1795C45.5742 17.966 46.2117 18.6036 46.9984 18.6036C47.7851 18.6036 48.4225 17.966 48.4225 17.1795Z" fill="#405B6C"/>
<path d="M45.5742 76.8206V81.2318C45.5742 82.0183 46.2117 82.656 46.9984 82.656C47.7851 82.656 48.4225 82.0183 48.4225 81.2318V76.8206C48.4225 76.0341 47.7849 75.3965 46.9984 75.3965C46.2118 75.3965 45.5742 76.0341 45.5742 76.8206Z" fill="#405B6C"/>
<path d="M81.2338 48.4242C82.0205 48.4242 82.6579 47.7866 82.6579 47.0001C82.6579 46.2136 82.0203 45.5759 81.2338 45.5759H76.8226C76.0361 45.5759 75.3984 46.2136 75.3984 47.0001C75.3984 47.7866 76.0361 48.4242 76.8226 48.4242H81.2338Z" fill="#405B6C"/>
<path d="M12.7679 45.5759C11.9812 45.5759 11.3438 46.2136 11.3438 47.0001C11.3438 47.7866 11.9812 48.4242 12.7679 48.4242H17.1791C17.9658 48.4242 18.6032 47.7866 18.6032 47.0001C18.6032 46.2136 17.9656 45.5759 17.1791 45.5759H12.7679Z" fill="#405B6C"/>
</g>
<defs>
<clipPath id="clip0_108_8906">
<rect width="94" height="94" fill="white"/>
</clipPath>
</defs>
</svg>
